<?xml version="1.0" standalone="no"?>
<!DOCTYPE svg PUBLIC "-//W3C//DTD SVG 20010904//EN"
 "http://www.w3.org/TR/2001/REC-SVG-20010904/DTD/svg10.dtd">
<svg version="1.0" xmlns="http://www.w3.org/2000/svg"
 width="630.000000pt" height="315.000000pt" viewBox="0 0 630.000000 315.000000"
 preserveAspectRatio="xMidYMid meet">

<g transform="translate(0.000000,315.000000) scale(0.100000,-0.100000)"
fill="#000000" stroke="none">
<path d="M0 2361 c0 -619 3 -790 12 -793 10 -4 10 -10 0 -32 -7 -15 -12 -68
-12 -123 0 -79 3 -98 18 -109 16 -12 16 -13 0 -14 -16 0 -17 -21 -18 -241 0
-207 2 -240 14 -236 10 4 16 -2 18 -21 3 -27 8 -29 41 -17 12 5 17 2 17 -9 0
-9 5 -16 10 -16 6 0 10 5 10 11 0 6 8 3 17 -6 14 -14 30 -16 85 -13 73 6 84
10 73 28 -5 8 -10 8 -21 0 -7 -7 -19 -10 -26 -8 -29 10 40 32 95 30 44 -1 57
2 57 13 0 8 5 15 10 15 6 0 10 7 10 15 0 8 3 15 8 16 4 0 19 3 34 5 30 5 48
-13 27 -27 -10 -6 -6 -9 14 -9 15 0 27 -4 27 -10 0 -14 84 -12 98 2 27 27 14
41 -33 34 -29 -5 -45 -4 -45 3 0 16 68 21 88 7 8 -5 37 -9 65 -8 38 2 48 0 37
-7 -8 -6 -25 -11 -37 -11 -14 0 -23 -6 -23 -15 0 -10 -10 -15 -27 -15 -48 0
-15 -12 69 -25 46 -7 69 -13 51 -14 -17 -1 -35 -5 -38 -11 -9 -14 175 -13 246
2 36 7 61 18 68 31 9 14 9 17 1 12 -7 -4 -22 -3 -33 3 -12 6 -30 13 -40 16
-10 3 -15 10 -12 16 4 6 10 8 15 5 5 -3 11 -1 15 5 3 5 -3 10 -13 10 -15 0
-19 5 -15 21 4 12 11 18 20 15 8 -3 26 -6 39 -6 30 0 31 -18 2 -29 -21 -8 -21
-10 -5 -16 21 -9 50 13 43 32 -3 7 1 13 10 13 8 0 13 -4 9 -9 -3 -5 -1 -12 5
-16 13 -8 13 -45 0 -45 -5 0 -10 -4 -10 -10 0 -5 9 -10 19 -10 11 0 27 -8 37
-18 13 -13 36 -17 96 -19 42 -1 80 2 83 8 8 11 55 12 55 0 0 -8 142 13 159 24
6 3 12 1 16 -4 3 -5 13 -10 23 -10 9 0 44 -1 77 -3 33 -1 72 1 88 5 24 7 27 5
27 -18 0 -18 5 -25 19 -25 24 0 36 16 19 23 -10 4 -10 6 0 6 23 2 12 21 -13
21 -14 0 -25 4 -25 10 0 6 -18 7 -45 3 l-46 -6 12 27 c12 25 15 26 92 26 66 0
78 2 73 15 -6 17 9 21 19 5 4 -6 16 -5 33 4 33 16 92 28 92 18 0 -4 -18 -15
-40 -24 -46 -19 -50 -31 -15 -54 14 -9 25 -22 25 -30 0 -7 6 -16 13 -20 6 -4
9 -4 5 1 -23 25 110 59 149 36 11 -7 13 -10 4 -11 -11 0 -11 -3 -1 -15 9 -11
9 -15 1 -15 -7 0 -9 -5 -6 -10 9 -15 117 -12 137 4 26 19 22 26 -12 20 -18 -4
-30 -2 -30 4 0 16 84 53 129 57 42 4 45 0 44 -43 -1 -10 13 -12 51 -9 28 2 52
7 53 11 1 4 19 17 39 28 33 18 62 20 242 24 132 3 207 1 211 -5 6 -9 147 -17
176 -11 33 8 84 -3 103 -20 12 -12 22 -17 22 -12 0 5 29 9 64 9 l64 1 -2 -32
c-1 -27 3 -31 27 -34 28 -3 28 -2 31 53 1 13 7 19 19 17 20 -3 20 -4 6 37 -6
18 -18 31 -27 31 -15 0 -15 2 -2 10 12 8 12 10 -3 15 -13 6 -14 11 -6 26 12
24 75 28 66 5 -4 -11 -1 -13 10 -9 17 7 103 -36 103 -51 0 -6 -5 -5 -12 2 -15
15 -55 16 -63 2 -4 -6 -1 -18 6 -26 10 -12 9 -13 -3 -9 -8 3 -20 -1 -27 -8 -9
-12 -8 -16 4 -21 9 -3 15 -14 13 -23 -2 -15 4 -18 37 -17 61 1 95 12 95 31 0
13 3 14 12 5 7 -7 21 -12 33 -13 19 0 19 -1 -2 -9 -23 -10 -31 -29 -13 -31 6
-1 15 -3 20 -4 6 -1 19 -3 30 -4 25 -1 26 -18 3 -25 -10 -2 -5 -4 12 -3 34 2
44 26 20 50 -8 9 -15 18 -15 21 0 12 59 6 86 -9 16 -8 45 -15 64 -15 40 0 61
-15 53 -36 -3 -9 2 -14 16 -14 12 0 21 6 20 13 -3 26 2 37 16 37 9 0 15 9 15
25 0 14 5 25 10 25 6 0 10 -10 10 -23 0 -13 5 -28 12 -35 14 -14 74 -16 83 -2
7 11 135 11 135 0 0 -4 15 -10 33 -14 25 -5 29 -9 17 -16 -11 -7 -4 -10 25
-10 52 0 68 11 63 45 -4 37 19 44 32 11 8 -21 16 -26 45 -26 19 0 35 3 35 8 0
11 69 13 126 3 54 -10 98 -5 88 10 -3 5 2 9 10 9 20 0 20 -14 1 -30 -8 -7 -15
-15 -15 -19 0 -11 212 -11 293 0 59 8 82 7 93 -2 10 -8 35 -10 87 -4 39 4 95
9 124 11 29 1 57 5 63 9 16 10 164 7 193 -4 14 -5 28 -7 32 -3 12 13 64 10 69
-4 3 -8 13 -14 23 -14 10 0 25 -5 33 -10 11 -7 1 -9 -35 -8 -56 3 -52 9 -54
-84 -1 -47 -4 -56 -16 -52 -8 4 -15 1 -15 -5 0 -6 7 -11 15 -11 21 0 19 -17
-5 -42 -25 -28 -25 -38 1 -38 16 0 19 -4 14 -20 -4 -12 -1 -28 7 -37 9 -12 9
-15 1 -9 -7 4 -13 3 -13 -3 0 -6 -7 -8 -15 -5 -11 5 -15 -1 -15 -20 0 -14 -4
-26 -10 -26 -5 0 -7 7 -4 15 10 25 -7 40 -23 20 -12 -18 -13 -17 -13 5 0 15
-4 20 -9 14 -11 -11 -15 -43 -12 -99 l3 -40 17 37 c14 29 20 34 34 27 9 -6 17
-17 17 -24 0 -18 -12 -19 -28 -3 -9 9 -12 7 -12 -10 0 -12 5 -22 11 -22 5 0 7
-4 4 -10 -4 -6 6 -10 22 -10 22 0 25 -2 13 -10 -8 -5 -49 -10 -91 -10 l-75 0
3 43 c2 23 5 61 7 85 4 48 -2 56 -36 43 -13 -6 -16 -10 -8 -11 13 0 13 -1 0
-10 -13 -9 -13 -10 0 -10 13 0 13 -1 0 -11 -11 -8 -12 -12 -2 -16 16 -6 16
-40 0 -46 -10 -4 -10 -8 1 -15 11 -8 11 -10 0 -15 -10 -4 -9 -6 4 -6 9 -1 17
-5 17 -10 0 -12 -26 -21 -59 -21 -27 0 -28 1 -23 49 2 27 -1 57 -7 67 -8 16
-11 9 -12 -36 -1 -30 -1 -61 0 -67 1 -10 -62 -13 -283 -12 -270 0 -284 1 -281
18 3 15 -1 18 -18 13 -19 -5 -19 -6 -3 -12 16 -5 16 -8 3 -18 -17 -14 -180
-14 -171 0 3 4 1 8 -5 8 -5 0 -11 -4 -13 -9 -1 -4 -63 -5 -137 -1 -74 4 -153
4 -175 0 -44 -7 -994 -11 -2516 -9 -514 1 -1040 0 -1169 -1 -211 -2 -233 0
-228 14 4 10 1 16 -8 16 -16 0 -16 21 0 32 6 4 2 8 -9 8 -16 0 -18 -5 -13 -34
l5 -34 -86 0 c-48 0 -97 5 -110 11 -19 9 -25 8 -32 -3 -8 -12 -10 -11 -10 6 0
28 10 36 27 23 17 -14 17 2 1 20 -11 11 -10 13 3 9 12 -5 15 2 16 29 1 26 -2
32 -10 24 -19 -19 -31 -12 -13 8 17 19 17 20 -2 30 -26 14 -102 11 -102 -3 0
-6 9 -17 20 -24 31 -19 24 -32 -9 -16 -23 11 -27 19 -23 41 3 16 1 24 -5 20
-7 -4 -11 -79 -12 -197 l-2 -190 3150 0 3150 0 0 345 0 345 -92 0 c-63 0 -87
3 -77 10 8 5 50 10 93 10 l77 0 0 134 c0 122 -8 164 -25 136 -14 -23 -25 -7
-26 38 0 38 -2 43 -9 25 -22 -55 -41 -4 -20 52 6 15 6 24 1 20 -5 -3 -17 -25
-27 -50 -18 -47 -34 -59 -34 -25 0 11 -4 20 -10 20 -5 0 -10 -9 -10 -19 0 -11
-4 -23 -10 -26 -6 -3 -10 4 -10 18 0 31 30 117 41 117 4 0 13 19 20 42 6 24
20 56 32 72 18 25 21 26 30 11 6 -12 6 -30 -2 -55 -15 -49 -14 -86 2 -88 6 0
21 -2 32 -4 18 -3 20 3 23 80 2 52 -1 82 -8 82 -5 0 -10 -6 -11 -12 0 -7 -5 0
-9 16 -10 33 -6 46 16 46 16 0 19 16 4 25 -6 3 -10 15 -10 26 0 10 5 19 10 19
6 0 10 57 10 151 0 134 -2 150 -15 139 -8 -7 -15 -9 -15 -5 0 4 -7 2 -15 -5
-8 -7 -15 -10 -15 -7 0 3 -13 -7 -30 -21 -22 -20 -27 -29 -18 -39 16 -19 7
-23 -35 -16 -35 5 -37 8 -34 38 5 42 12 52 49 71 22 12 46 15 80 11 l48 -6 0
364 c-1 337 -2 365 -18 365 -15 1 -16 2 -1 13 20 15 23 77 4 77 -8 0 -17 5
-21 12 -5 7 -1 9 12 6 17 -4 20 1 22 40 1 28 -3 49 -11 54 -9 6 -9 10 1 16 9
6 12 53 11 190 -1 100 -3 182 -5 182 -2 0 -10 -12 -18 -27 l-15 -28 -1 28 c0
21 6 30 20 34 17 4 20 14 20 54 l0 49 -44 0 c-32 0 -71 -12 -132 -41 -109 -51
-193 -81 -207 -72 -5 3 -7 1 -3 -5 3 -5 2 -12 -4 -14 -12 -4 -19 -558 -7 -558
7 0 10 68 8 220 0 47 3 101 8 120 6 22 8 -29 6 -145 -4 -266 -7 -342 -12 -322
-9 35 -23 15 -23 -34 0 -46 2 -51 20 -46 13 3 20 0 20 -9 0 -7 -8 -13 -17 -12
-37 3 -63 -2 -63 -12 0 -6 8 -10 18 -8 13 2 17 -4 16 -29 0 -18 -1 -118 -2
-223 -2 -174 -4 -190 -19 -190 -17 0 -18 13 -15 155 l3 156 -76 -7 c-72 -6
-75 -6 -75 15 0 21 27 55 51 63 20 7 -1 30 -22 25 -24 -6 -25 8 -1 17 9 3 27
12 40 20 l23 13 -23 7 c-19 5 -20 8 -8 16 8 5 25 10 38 10 12 0 22 5 22 10 0
6 -13 10 -30 10 -16 0 -30 5 -30 11 0 6 -10 19 -22 29 -16 13 -23 30 -25 66
-1 27 -7 74 -12 104 -5 30 -7 59 -4 63 3 4 -1 14 -7 22 -7 9 -8 15 -2 15 14 0
23 42 12 55 -6 7 -7 15 -3 18 3 4 2 7 -3 7 -6 0 -15 -5 -22 -12 -9 -9 -12 -9
-12 0 0 7 5 12 10 12 6 0 10 13 10 29 0 16 6 32 13 34 9 4 8 8 -3 16 -13 9
-13 11 2 11 14 0 16 4 9 23 -6 14 -6 30 0 38 5 8 9 39 9 69 0 30 7 82 16 115
9 33 18 79 21 103 l5 42 -1425 0 c-1131 0 -1426 -3 -1430 -12 -3 -10 -28 -12
-88 -9 -56 2 -77 6 -64 11 11 5 -68 9 -182 9 -129 1 -203 -3 -203 -9 0 -5 -24
-10 -52 -10 -38 0 -49 3 -38 10 10 6 -38 10 -145 9 -99 0 -152 -4 -140 -9 15
-7 10 -9 -22 -9 -24 -1 -43 4 -43 9 0 15 -97 13 -103 -2 -3 -9 -24 -12 -73 -9
-55 3 -63 6 -39 11 17 4 -360 8 -837 9 l-868 1 0 -789z m2058 772 c-10 -2 -26
-2 -35 0 -10 3 -2 5 17 5 19 0 27 -2 18 -5z m1201 3 c-10 -9 -258 -15 -264 -6
-4 6 42 10 131 10 76 0 135 -2 133 -4z m369 -3 c-16 -2 -40 -2 -55 0 -16 2 -3
4 27 4 30 0 43 -2 28 -4z m2606 -59 c3 -8 2 -12 -4 -9 -6 3 -10 10 -10 16 0
14 7 11 14 -7z m-3334 -24 c0 -13 -7 -20 -20 -20 -23 0 -26 10 -8 28 18 18 28
15 28 -8z m-1010 -10 c0 -11 -14 -11 -50 0 -22 7 -21 8 13 9 20 1 37 -3 37 -9z
m496 1 c-8 -12 -386 -15 -386 -2 0 8 65 11 196 11 107 0 193 -4 190 -9z m3724
-40 c0 -6 -4 -13 -10 -16 -5 -3 -10 1 -10 9 0 9 5 16 10 16 6 0 10 -4 10 -9z
m-4002 -42 c9 -1 4 -5 -13 -8 -34 -8 -48 -4 -39 10 3 6 13 8 21 5 8 -3 22 -7
31 -7z m3975 -4 c-3 -9 -8 -14 -10 -11 -3 3 -2 9 2 15 9 16 15 13 8 -4z m127
-25 c0 -5 -2 -10 -4 -10 -3 0 -8 5 -11 10 -3 6 -1 10 4 10 6 0 11 -4 11 -10z
m24 -54 c8 -47 4 -75 -10 -69 -16 6 -19 33 -5 33 6 0 3 16 -5 35 -12 30 -12
34 1 29 8 -4 17 -16 19 -28z m46 -187 c0 -6 -6 -17 -14 -25 -13 -12 -14 -10
-11 13 2 16 4 29 4 31 2 8 21 -10 21 -19z m-653 -151 c-2 -24 -4 -5 -4 42 0
47 2 66 4 43 2 -24 2 -62 0 -85z m-478 -55 c-1 -104 -4 -144 -9 -118 -6 33 -7
105 -1 253 1 12 3 22 6 22 3 0 4 -71 4 -157z m974 72 c4 -8 2 -17 -3 -20 -6
-4 -10 3 -10 14 0 25 6 27 13 6z m47 -35 c0 -5 -4 -10 -10 -10 -5 0 -10 5 -10
10 0 6 5 10 10 10 6 0 10 -4 10 -10z m-28 -32 c-7 -7 -12 -23 -12 -37 0 -19
-3 -22 -12 -13 -14 14 4 62 24 62 9 0 9 -3 0 -12z m78 -8 c0 -5 -5 -10 -11
-10 -5 0 -7 5 -4 10 3 6 8 10 11 10 2 0 4 -4 4 -10z m-584 -87 c-11 -11 -19 6
-11 24 8 17 8 17 12 0 3 -10 2 -21 -1 -24z m544 -13 c0 -5 -4 -10 -10 -10 -5
0 -10 5 -10 10 0 6 5 10 10 10 6 0 10 -4 10 -10z m60 -50 c-12 -23 -36 -40
-26 -19 3 8 9 22 12 31 4 10 10 15 15 12 5 -3 5 -13 -1 -24z m-3972 -697 c-2
-218 -7 -355 -13 -366 -10 -15 -17 -10 -55 42 -25 33 -58 66 -75 73 -16 7 -79
61 -140 120 -99 96 -108 108 -93 120 13 9 15 17 8 28 -8 13 -10 12 -10 -4 0
-11 -3 -17 -6 -14 -3 3 -8 83 -11 177 l-6 171 202 0 203 0 -4 -347z m926 307
c4 -4 7 -82 6 -172 -1 -90 -2 -200 -2 -246 1 -81 0 -82 -23 -76 -12 3 -26 1
-29 -5 -11 -17 -25 -13 -24 7 1 9 -5 71 -12 137 -14 126 -22 145 -72 171 -66
34 -152 -4 -173 -76 -8 -28 -32 -85 -46 -112 -5 -10 -9 -31 -9 -48 0 -16 -4
-30 -9 -30 -4 0 -25 -14 -47 -30 -35 -29 -36 -31 -16 -37 12 -3 22 -12 22 -19
0 -8 4 -14 10 -14 5 0 12 -16 16 -35 6 -34 24 -59 24 -35 0 7 7 10 15 6 8 -3
19 2 24 11 8 15 12 15 47 -2 22 -9 47 -24 56 -32 15 -14 20 -13 44 6 30 24 54
27 55 9 0 -7 5 -4 10 7 21 44 -2 -103 -25 -160 -20 -50 -32 -66 -76 -95 -59
-39 -53 -51 11 -21 49 24 49 24 49 11 0 -5 -16 -25 -35 -43 -40 -39 -86 -52
-146 -42 -45 8 -45 8 46 98 33 32 49 53 36 45 -52 -29 -62 -35 -81 -53 -28
-25 -37 -12 -15 22 l18 28 -22 -19 -21 -20 6 75 c4 41 4 72 1 69 -14 -14 -47
-83 -47 -100 0 -23 -26 -39 -51 -33 -16 5 -17 2 -7 -24 6 -16 8 -45 4 -65 -7
-38 -33 -58 -42 -33 -5 11 -10 12 -24 3 -14 -9 -16 -17 -9 -36 7 -19 6 -29 -7
-43 -10 -11 -13 -19 -9 -19 5 0 3 -6 -3 -12 -10 -10 -15 -10 -22 2 -8 12 -11
13 -19 1 -6 -9 -11 -10 -15 -2 -12 18 -36 12 -36 -8 0 -18 -4 -19 -29 -10 -15
5 -34 22 -42 37 -20 39 -36 54 -44 42 -10 -16 -25 -1 -25 25 0 17 11 32 35 47
19 13 35 31 35 40 0 9 24 41 53 70 108 108 125 162 137 438 12 260 19 392 21
405 3 12 520 8 533 -5z m704 -25 c12 -19 22 -39 22 -44 0 -5 4 -11 8 -13 5 -1
12 -18 15 -35 5 -25 3 -33 -8 -33 -8 0 -15 -7 -15 -15 0 -8 -4 -15 -10 -15 -5
0 -10 -11 -10 -25 0 -14 5 -25 10 -25 6 0 10 7 10 15 0 8 5 15 10 15 22 0 9
-39 -18 -52 -25 -13 -32 -12 -71 9 -54 28 -111 31 -112 6 0 -10 -3 -13 -5 -7
-8 19 -84 -23 -84 -46 0 -21 38 -37 66 -26 18 7 59 -12 49 -22 -4 -4 -19 -7
-33 -7 -18 0 -28 -6 -30 -19 -4 -17 0 -18 42 -13 39 6 46 4 46 -11 -1 -28 -33
-60 -65 -64 -37 -4 -70 -52 -45 -68 8 -5 33 -7 54 -3 31 5 42 2 53 -12 18 -26
16 -38 -6 -32 -31 8 -71 -41 -74 -91 -1 -23 -5 -42 -9 -42 -5 0 -8 -10 -8 -23
0 -13 -6 -31 -13 -41 -34 -46 -72 38 -43 96 21 41 20 55 -3 63 -15 4 -19 20
-25 82 -8 96 -8 496 0 517 5 14 27 16 143 16 l136 0 23 -35z m-3861 -72 c-4
-3 -2 -12 4 -20 9 -10 8 -13 -5 -13 -9 0 -16 8 -16 20 0 11 5 20 12 20 6 0 8
-3 5 -7z m4118 -48 c14 -15 17 -35 6 -35 -6 0 -13 5 -16 10 -4 6 -11 8 -16 4
-13 -7 19 -44 38 -44 7 0 13 -8 13 -19 0 -10 7 -24 15 -31 21 -18 18 -40 -10
-75 -25 -30 -25 -30 -31 -7 -6 21 -19 26 -56 23 -13 -2 -18 5 -18 21 0 13 -7
32 -15 42 -24 32 -18 74 14 107 29 29 52 30 76 4z m1502 -67 c-2 -13 -4 -3 -4
22 0 25 2 35 4 23 2 -13 2 -33 0 -45z m-4866 11 c7 -27 -7 -63 -21 -54 -13 8
-10 87 3 82 6 -2 14 -14 18 -28z m2189 0 c0 -7 14 -10 36 -7 31 4 38 1 47 -21
9 -19 9 -25 -1 -29 -6 -2 -12 -9 -12 -15 0 -7 -14 -12 -32 -12 -27 0 -32 -4
-35 -29 l-4 -28 31 22 31 22 -3 -33 c-4 -39 -39 -56 -83 -39 -27 10 -27 12
-20 67 7 54 6 56 -10 43 -16 -14 -17 -13 -11 10 12 39 66 79 66 49z m1230 1
c0 -5 -5 -10 -11 -10 -5 0 -7 5 -4 10 3 6 8 10 11 10 2 0 4 -4 4 -10z m-2930
-45 c0 -25 -4 -45 -10 -45 -11 0 -13 33 -4 68 10 34 14 27 14 -23z m-568 18
c23 -21 22 -32 -7 -67 -22 -27 -22 -31 -7 -42 13 -10 14 -15 5 -25 -10 -10
-18 -10 -38 -1 -21 10 -24 17 -19 37 3 14 3 32 0 41 -5 13 -9 14 -22 4 -8 -7
-13 -19 -10 -27 4 -9 -4 -13 -24 -13 -35 0 -40 15 -7 25 19 6 19 8 5 12 -19 5
-25 43 -8 43 6 0 10 -4 10 -10 0 -5 5 -10 11 -10 6 0 9 7 5 15 -12 33 73 48
106 18z m-292 -14 c-11 -7 -7 -8 13 -3 17 4 27 2 27 -5 0 -6 10 -10 23 -8 17
1 21 -2 19 -18 -2 -11 -12 -29 -23 -41 -14 -14 -16 -23 -8 -31 8 -8 8 -17 -1
-33 -18 -33 -35 -18 -33 29 2 49 -3 52 -22 9 -14 -33 -14 -32 -8 20 4 35 2 52
-5 52 -6 0 -9 -7 -6 -15 4 -10 0 -15 -15 -15 -24 0 -24 0 -11 35 5 14 20 29
32 34 27 10 38 4 18 -10z m5467 7 c-3 -8 2 -16 14 -19 10 -3 19 -2 19 3 0 4 7
11 16 14 15 6 15 4 0 -18 -9 -14 -16 -32 -16 -41 0 -8 -8 -15 -18 -15 -10 0
-27 -6 -37 -14 -18 -13 -18 -14 3 -25 16 -8 28 -9 41 -1 28 14 31 13 31 -13 0
-47 -40 -62 -58 -22 -7 15 -17 22 -26 19 -21 -8 -26 9 -14 49 13 41 6 56 -16
38 -21 -17 -27 18 -8 42 19 21 77 24 69 3z m-5716 -23 c10 -12 11 -17 2 -20
-16 -6 -46 -35 -59 -58 -6 -10 -16 -21 -22 -23 -18 -6 -15 53 3 68 8 7 15 18
15 25 0 12 12 18 41 24 4 0 13 -6 20 -16z m3529 -23 c0 -5 -9 -10 -21 -10 -11
0 -17 5 -14 10 3 6 13 10 21 10 8 0 14 -4 14 -10z m857 -16 c3 -8 11 -14 19
-14 7 0 11 -6 8 -14 -3 -8 1 -27 9 -43 8 -16 11 -36 7 -47 -6 -17 -8 -15 -19
15 -12 32 -13 33 -22 12 -4 -13 -17 -23 -27 -23 -11 0 -25 -7 -32 -15 -7 -8
-18 -15 -26 -15 -7 0 -19 -6 -27 -14 -15 -15 -29 -19 -60 -17 -16 1 -16 4 6
34 24 33 28 50 15 63 -5 4 -8 -2 -8 -12 0 -29 -53 -76 -81 -72 -26 3 -39 28
-15 28 10 0 16 8 16 21 0 12 5 19 13 16 15 -5 47 10 47 23 0 5 5 21 11 37 l11
28 12 -27 11 -26 22 24 c12 13 19 24 16 24 -3 0 4 8 15 19 24 20 70 17 79 -5z
m-797 12 c0 -2 -7 -6 -15 -10 -8 -3 -15 -1 -15 4 0 6 7 10 15 10 8 0 15 -2 15
-4z m193 -58 c-2 -5 -10 -8 -18 -8 -8 0 -11 -7 -8 -19 4 -16 -2 -22 -28 -29
-23 -6 -34 -15 -35 -28 -2 -38 -4 -44 -15 -44 -7 0 -9 11 -6 27 3 16 0 31 -8
38 -7 5 -16 24 -20 42 -5 25 -2 36 15 53 13 13 28 19 39 15 10 -3 29 -1 42 3
20 8 26 5 35 -17 6 -14 9 -29 7 -33z m-2630 8 c6 -19 6 -31 -2 -39 -8 -8 -11
-4 -11 15 0 15 -4 30 -10 33 -14 9 -13 28 2 23 6 -2 16 -17 21 -32z m335 18
c12 -2 22 -9 22 -15 0 -6 -9 -9 -20 -6 -18 5 -18 4 1 -23 27 -36 22 -64 -14
-68 -16 -2 -27 -9 -27 -18 0 -11 8 -14 28 -12 22 2 28 -1 30 -21 3 -15 0 -21
-8 -16 -6 4 -16 2 -23 -3 -26 -21 -50 -18 -58 8 -6 23 -7 23 -8 -7 -1 -23 4
-33 14 -34 8 -1 21 -2 28 -3 14 -1 27 -16 27 -33 0 -19 -31 -16 -68 7 -36 22
-46 25 -37 11 3 -5 0 -13 -6 -17 -13 -8 -59 38 -59 60 0 8 -7 19 -16 24 -13 7
-14 13 -5 30 6 11 11 34 11 49 0 19 10 38 28 55 50 47 69 50 160 32z m3788
-13 c-9 -10 -16 -22 -16 -28 0 -6 -7 -16 -15 -23 -8 -7 -15 -21 -15 -32 0 -16
-5 -18 -35 -12 -35 6 -35 6 -61 -52 -14 -32 -27 -78 -29 -102 -1 -24 -8 -49
-15 -55 -10 -9 -11 -9 -6 1 11 19 -15 14 -38 -7 -30 -28 -120 -71 -147 -71
-23 0 -22 1 6 16 64 33 98 58 86 62 -7 2 -17 -1 -21 -8 -4 -7 -15 -10 -23 -7
-11 4 -14 17 -10 54 4 46 4 47 -11 23 l-15 -25 -2 30 -1 30 -8 -33 c-11 -48
-51 -102 -76 -102 -13 0 -24 -8 -26 -18 -3 -10 -12 -19 -21 -19 -8 0 -13 6
-11 12 3 6 -4 31 -15 56 l-20 44 0 -38 c-1 -39 -20 -47 -33 -15 -6 14 -11 15
-37 5 -24 -9 -31 -17 -31 -39 0 -21 -6 -29 -25 -34 -14 -3 -25 -10 -25 -14 0
-15 -39 -18 -65 -4 -25 13 -27 12 -32 -6 -6 -21 -37 -27 -48 -9 -4 6 -14 7
-24 4 -36 -15 -60 -15 -69 0 -7 14 -12 14 -45 0 -51 -21 -72 -19 -87 11 -12
22 -15 23 -20 8 -6 -16 -7 -16 -13 -1 -4 12 3 19 28 29 22 7 35 19 35 30 0 37
43 17 60 -27 9 -23 13 -26 20 -15 6 8 10 25 10 38 0 17 6 22 28 22 50 0 176
42 207 70 39 34 77 50 104 43 12 -3 21 -1 21 6 0 6 -7 11 -15 11 -8 0 -15 4
-15 8 0 12 39 52 50 52 16 0 102 58 117 80 9 13 25 20 47 20 28 0 35 -5 41
-27 l8 -28 6 25 c6 21 12 24 46 22 168 -8 196 -7 212 11 9 9 22 17 28 17 7 0
23 9 36 19 28 23 47 16 25 -8z m-4663 -12 c4 -15 -1 -23 -20 -30 -33 -12 -40
-5 -23 26 16 30 36 32 43 4z m1016 7 c7 -8 23 -17 37 -20 27 -7 28 -32 0 -30
-20 2 -21 -10 -1 -26 12 -10 15 -10 15 4 0 9 5 16 10 16 6 0 9 -3 8 -7 -1 -5
4 -25 12 -45 10 -27 17 -35 26 -27 17 14 74 -54 74 -90 0 -32 23 -57 41 -45 9
5 10 2 5 -12 -16 -40 -19 -84 -6 -84 8 0 11 -9 7 -28 -6 -32 6 -62 18 -43 3 6
9 48 11 93 2 45 6 84 9 86 12 12 16 -12 18 -109 2 -84 -2 -113 -17 -147 -32
-70 -45 -53 -20 27 13 42 -11 15 -26 -28 -17 -54 -30 -52 -30 4 0 45 -12 60
-24 29 -3 -8 -11 -12 -17 -8 -11 7 -9 -13 7 -68 3 -10 2 -18 -3 -18 -11 0 -73
92 -73 108 0 6 -4 12 -10 12 -11 0 -1 -63 12 -68 4 -2 8 -9 8 -16 0 -7 14 -25
30 -41 30 -29 39 -55 20 -55 -6 0 -15 10 -21 23 -6 12 -36 42 -66 67 -31 25
-64 53 -74 62 -9 9 -21 13 -24 10 -4 -4 0 8 9 26 17 32 21 35 66 36 15 1 26 7
26 16 1 8 2 21 3 28 0 6 13 13 29 13 24 2 24 2 4 6 -13 3 -27 15 -32 29 -7 19
-17 24 -42 24 -18 0 -42 -7 -52 -15 -22 -17 -22 -16 18 -33 41 -18 27 -24 -34
-16 -36 5 -59 14 -72 30 -11 12 -27 20 -34 17 -9 -3 -14 2 -14 16 0 14 6 21
20 21 11 0 20 -5 20 -11 0 -6 5 -7 13 -2 12 7 16 9 48 11 9 1 19 11 22 22 6
23 37 27 37 5 0 -11 12 -15 44 -15 25 0 56 -4 70 -10 29 -11 49 7 23 22 -9 5
-14 15 -11 23 8 20 -5 19 -27 -1 -20 -18 -51 -12 -45 8 1 7 1 10 -1 6 -7 -13
-61 -9 -70 5 -4 7 -25 23 -45 37 -41 27 -46 46 -27 113 7 26 21 44 42 57 38
24 41 24 56 6z m-509 -28 c0 -5 -4 -8 -10 -8 -5 0 -10 10 -10 23 0 18 2 19 10
7 5 -8 10 -18 10 -22z m-1090 7 c0 -8 -4 -15 -10 -15 -5 0 -10 7 -10 15 0 8 5
15 10 15 6 0 10 -7 10 -15z m348 -11 c2 -14 -4 -19 -23 -20 -13 -1 -23 1 -21
5 1 3 6 14 9 24 9 23 31 17 35 -9z m45 6 c-3 -11 -9 -17 -14 -15 -10 7 -1 35
11 35 5 0 6 -9 3 -20z m5640 0 c6 0 -4 -11 -22 -24 -41 -30 -101 -34 -94 -5 4
13 14 19 34 19 15 0 31 5 34 11 4 6 14 8 22 5 8 -3 20 -6 26 -6z m-5593 -31
c0 -6 -4 -7 -10 -4 -5 3 -10 11 -10 16 0 6 5 7 10 4 6 -3 10 -11 10 -16z
m2886 -40 c-7 -43 1 -70 14 -48 7 10 11 10 24 0 18 -15 21 -47 6 -56 -5 -3 -7
-19 -3 -35 8 -41 -7 -37 -39 11 -30 42 -34 72 -17 132 13 49 23 47 15 -4z
m2214 27 c0 -8 -4 -18 -10 -21 -5 -3 -10 3 -10 14 0 12 5 21 10 21 6 0 10 -6
10 -14z m104 -12 c9 -22 8 -24 -9 -18 -8 4 -15 12 -15 20 0 19 16 18 24 -2z
m-5202 -32 c29 -62 41 -138 29 -174 -17 -47 -3 -48 15 0 15 37 44 65 44 42 0
-6 7 -10 15 -10 18 0 19 -12 3 -28 -9 -9 -9 -12 -1 -12 7 0 13 -10 15 -22 3
-16 9 -6 21 35 18 58 33 78 25 32 -3 -14 -1 -28 3 -31 5 -3 9 1 9 9 0 8 7 28
16 43 l16 29 -8 -30 c-4 -16 -8 -40 -8 -52 -1 -13 -4 -23 -8 -23 -5 0 -8 -5
-8 -11 0 -6 7 -8 15 -5 9 3 18 -1 21 -9 4 -8 11 -15 16 -15 6 0 7 8 3 18 -4 9
-8 22 -8 29 0 6 -6 9 -14 6 -15 -6 -18 13 -3 22 6 3 10 23 10 43 1 36 1 36 14
13 12 -21 14 -22 20 -6 5 14 10 15 18 7 11 -11 14 -30 19 -112 3 -43 -9 -82
-22 -74 -6 3 -6 11 -1 17 10 14 4 107 -7 107 -5 0 -8 -24 -9 -52 -1 -57 -6
-98 -17 -138 l-7 -25 19 27 c10 14 31 36 46 48 l27 21 0 -58 c0 -64 5 -74 38
-92 31 -17 32 -81 1 -81 -13 0 -19 -5 -16 -13 2 -7 -4 -23 -14 -36 -15 -18
-19 -19 -19 -7 0 9 -7 16 -15 16 -14 0 -14 -3 0 -30 15 -29 15 -30 -6 -30 -15
0 -19 -4 -15 -16 5 -13 0 -15 -36 -9 -24 4 -43 8 -43 9 0 0 -6 11 -13 24 -10
18 -10 22 3 22 21 0 18 30 -5 59 -17 19 -27 22 -65 19 -25 -2 -45 0 -45 3 0
16 32 30 69 32 33 1 41 5 41 20 0 11 10 35 22 55 l21 35 -27 -5 c-21 -4 -26
-2 -22 9 3 8 1 11 -4 8 -5 -3 -12 -21 -16 -40 -3 -19 -11 -32 -17 -29 -7 2
-25 -12 -41 -31 -16 -19 -35 -35 -43 -35 -18 0 -17 35 2 53 12 13 11 15 -10
13 -14 0 -25 -4 -25 -8 0 -13 -57 -9 -67 5 -14 17 -15 85 -1 111 10 19 10 20
-6 7 -10 -8 -24 -27 -32 -43 -16 -32 -54 -39 -54 -10 1 24 26 55 39 47 7 -4
11 5 11 22 -1 24 -2 25 -11 11 -5 -10 -21 -18 -34 -18 -13 0 -27 -4 -30 -10
-8 -13 -25 -13 -25 1 0 16 23 36 37 32 6 -2 11 2 10 9 0 7 1 22 3 33 2 15 4
13 10 -10 7 -27 8 -25 9 18 1 48 -12 63 -24 27 -3 -11 -11 -20 -16 -20 -14 0
-11 26 6 40 8 7 15 20 15 29 -1 12 -7 8 -26 -13 -21 -24 -24 -35 -19 -70 5
-38 5 -39 -8 -18 -17 29 -29 18 -16 -15 13 -34 11 -73 -3 -74 -7 0 -3 -5 10
-11 13 -6 21 -17 18 -23 -6 -18 14 -35 40 -35 36 0 38 -18 5 -49 -19 -18 -40
-28 -60 -28 -27 0 -32 5 -41 36 -7 27 -6 40 5 58 12 18 12 21 2 17 -15 -5 -39
-72 -31 -85 3 -5 -1 -21 -9 -35 -23 -44 -27 -13 -6 50 11 32 17 67 14 77 -8
25 4 101 15 94 4 -2 10 20 12 50 4 43 11 62 31 83 15 16 27 33 27 39 0 12 50
35 86 39 24 2 24 1 24 -73 0 -41 -4 -82 -10 -92 -11 -21 2 -82 14 -63 4 7 12
10 17 7 5 -4 9 -1 9 4 0 6 -4 11 -9 11 -10 0 -2 93 10 100 4 3 2 24 -4 48 -9
36 -9 45 5 58 11 12 14 27 11 55 -7 49 7 50 29 1z m2314 -69 c9 -50 13 -56 29
-43 15 12 41 4 49 -16 6 -15 5 -15 -59 -20 -85 -6 -130 29 -90 70 9 9 16 35
16 65 l2 50 23 -34 c13 -19 26 -51 30 -72z m1004 98 c0 -6 -5 -13 -11 -17 -6
-3 -9 -14 -6 -24 4 -15 -1 -18 -20 -16 -38 4 -60 46 -24 46 11 0 23 5 26 10 8
13 35 13 35 1z m1837 -11 c-1 -12 -5 -16 -10 -11 -5 5 -6 14 -3 20 11 16 15
13 13 -9z m-5025 -13 c4 -18 0 -23 -19 -25 -28 -2 -31 22 -5 37 9 6 18 11 18
11 1 0 4 -10 6 -23z m1167 9 c10 -12 8 -13 -8 -9 -12 3 -18 9 -15 14 7 12 10
11 23 -5z m2640 -13 c10 -19 8 -24 -10 -34 -15 -8 -19 -8 -15 0 9 14 -3 14
-43 0 -20 -7 -31 -18 -31 -30 0 -12 -5 -16 -15 -13 -33 13 -15 43 43 73 31 16
58 28 58 28 1 -1 6 -12 13 -24z m-4186 -35 c-6 -100 -5 -98 -30 -98 -13 0 -35
12 -49 28 -14 15 -34 36 -45 47 -26 28 -24 36 7 25 27 -11 35 -7 76 33 33 32
44 22 41 -35z m732 33 c14 -1 6 -8 -23 -22 -24 -11 -42 -25 -39 -32 5 -16 137
-20 137 -3 0 7 11 23 25 36 21 19 25 21 25 7 0 -9 -3 -17 -7 -17 -12 0 -32
-50 -27 -65 3 -7 1 -16 -5 -20 -6 -3 -14 1 -17 9 -3 9 -10 16 -15 16 -5 0 -4
-12 2 -27 5 -15 8 -38 4 -50 -7 -30 -35 -30 -36 0 l0 22 -10 -23 c-5 -13 -18
-26 -28 -29 -13 -3 -17 -11 -14 -24 3 -10 0 -19 -6 -19 -6 0 -11 -7 -11 -15 0
-8 4 -15 9 -15 5 0 12 -8 16 -17 8 -22 -28 -53 -61 -53 -13 0 -24 -4 -24 -10
0 -10 13 -14 43 -11 9 1 17 -3 17 -9 0 -19 -29 -23 -55 -6 -27 18 -44 4 -25
-19 7 -9 8 -15 2 -15 -24 0 -32 33 -34 149 l-3 123 33 28 33 28 -37 36 c-27
26 -35 39 -26 45 10 6 76 7 157 2z m4808 -18 c-4 -11 -8 -13 -11 -5 -2 7 -9 9
-14 6 -7 -4 -8 -2 -4 4 12 19 36 15 29 -5z m-4736 1 c-3 -3 -12 -4 -19 -1 -8
3 -5 6 6 6 11 1 17 -2 13 -5z m4583 -32 c0 -39 -14 -55 -39 -47 -24 7 -28 25
-6 25 8 0 15 8 15 18 0 15 2 15 11 2 8 -12 10 -9 6 12 -2 15 0 25 4 22 5 -3 9
-17 9 -32z m-1588 15 c-8 -10 -6 -17 8 -27 18 -13 18 -15 -15 -47 -21 -20 -40
-31 -49 -27 -10 4 -16 1 -16 -9 0 -8 -7 -20 -15 -27 -20 -17 -19 -27 4 -47 24
-20 18 -33 -15 -33 -14 0 -22 -4 -19 -10 3 -5 17 -10 31 -10 13 0 24 -3 24 -6
0 -10 -41 -59 -51 -60 -5 -1 -14 -2 -20 -3 -5 0 -7 -5 -4 -11 9 -15 -2 -12
-32 7 l-26 17 16 -31 c17 -31 42 -48 58 -37 17 10 -2 -50 -20 -64 -9 -7 -15
-20 -13 -28 2 -8 -5 -15 -15 -15 -13 -1 -14 -2 -3 -6 18 -5 55 -53 42 -53 -5
0 -15 7 -22 15 -17 20 -44 20 -36 0 3 -9 -1 -18 -9 -21 -8 -4 -13 -10 -10 -14
5 -9 -46 3 -65 15 -13 8 -13 -8 1 -22 17 -17 2 -33 -23 -24 -15 5 -27 27 -43
77 l-22 69 -2 -64 c0 -36 -3 -67 -6 -70 -3 -2 -22 11 -41 30 l-37 34 5 -27 c3
-15 1 -25 -3 -22 -5 3 -9 12 -9 20 0 8 -5 13 -12 12 -7 -2 -15 11 -18 27 -6
30 -6 30 -13 5 -3 -13 -4 -36 0 -50 6 -25 6 -25 -16 -6 -11 11 -21 27 -21 37
0 28 28 130 40 144 8 10 8 15 -1 20 -14 9 -6 51 21 111 17 41 21 44 39 32 18
-11 24 -9 51 17 l32 30 19 -23 c17 -21 20 -22 39 -9 21 15 21 15 -14 27 -35
11 -47 32 -25 46 6 3 16 1 22 -5 7 -7 15 -7 22 -1 16 13 86 0 92 -17 7 -18
-13 -32 -47 -34 l-25 -2 25 -4 c14 -3 31 -10 38 -15 9 -8 12 -6 12 6 0 9 9 21
20 28 11 7 20 16 20 20 0 21 127 148 147 148 12 0 13 -3 5 -13z m-2751 -9 c1
-7 0 -23 -1 -36 -1 -13 4 -30 11 -38 10 -13 10 -17 -2 -25 -30 -19 -45 -10
-46 29 -2 55 5 82 22 82 8 0 15 -6 16 -12z m1667 -34 c-4 -3 -12 5 -18 18 -12
22 -12 22 6 6 10 -10 15 -20 12 -24z m2780 17 c3 -8 -1 -12 -9 -9 -7 2 -15 10
-17 17 -3 8 1 12 9 9 7 -2 15 -10 17 -17z m-5651 -13 c18 -13 33 -29 33 -35 0
-7 4 -13 9 -13 5 0 7 -10 3 -22 -5 -21 -6 -21 -12 -2 -7 18 -8 17 -18 -6 -6
-14 -13 -33 -16 -43 -12 -39 -52 23 -59 91 -6 60 6 66 60 30z m4148 12 c11
-17 136 -72 152 -66 21 9 61 -3 67 -20 4 -10 -6 -20 -29 -31 -33 -16 -36 -15
-55 2 -18 16 -20 16 -20 2 0 -10 -5 -17 -11 -17 -16 0 -41 29 -34 40 3 5 -1
10 -9 10 -9 0 -16 -5 -16 -11 0 -5 -5 -7 -10 -4 -6 4 -10 14 -9 23 3 33 -2 37
-20 13 -16 -20 -23 -22 -59 -16 -44 7 -49 16 -32 59 8 21 16 26 44 26 19 0 38
-5 41 -10z m-2650 -80 c-12 -19 -42 8 -43 37 0 45 10 48 30 9 10 -20 16 -41
13 -46z m-1401 -41 c-8 -13 -24 -1 -24 18 0 13 3 13 15 3 8 -7 12 -16 9 -21z
m1835 4 c6 -16 20 -42 31 -59 19 -29 19 -34 5 -67 -8 -20 -12 -42 -10 -50 3
-7 -4 -22 -16 -33 -13 -10 -19 -14 -16 -7 4 6 2 24 -3 39 -8 20 -8 29 0 34 11
7 5 61 -15 143 -9 36 10 35 24 0z m1596 8 c-3 -6 -11 -11 -16 -11 -5 0 -4 6 3
14 14 16 24 13 13 -3z m-506 -12 c-13 -8 -12 -10 10 -13 21 -3 23 -17 5 -31
-27 -20 -34 -18 -34 9 0 34 10 57 22 50 6 -4 5 -10 -3 -15z m-1129 -18 c0 -9
5 -22 11 -28 7 -7 6 -27 -5 -68 -8 -31 -16 -58 -18 -60 -2 -2 -3 39 -3 90 0
51 3 91 7 89 5 -3 8 -13 8 -23z m979 -18 c0 -40 -2 -44 -10 -25 -8 21 -3 72 7
72 2 0 4 -21 3 -47z m118 25 c-3 -8 -6 -5 -6 6 -1 11 2 17 5 13 3 -3 4 -12 1
-19z m2453 -35 c-11 -17 -11 -17 -6 0 3 10 6 24 7 30 0 9 2 9 5 0 3 -7 0 -20
-6 -30z m-4270 -41 c6 -26 16 -52 22 -59 17 -20 -1 -33 -47 -33 -32 0 -51 7
-75 26 -58 49 -41 17 21 -39 33 -31 58 -61 54 -66 -10 -18 -28 -12 -54 17 -27
31 -26 17 3 -50 14 -33 14 -38 2 -38 -8 0 -30 16 -49 35 l-35 36 -6 -26 c-4
-14 -4 -31 0 -37 4 -6 1 -9 -7 -6 -8 3 -19 -2 -26 -11 -24 -31 -15 -46 35 -59
98 -27 101 -27 112 2 18 47 31 29 28 -39 -3 -63 -3 -64 -28 -58 -14 3 -26 10
-28 15 -4 10 -22 11 -21 1 3 -19 -15 -53 -27 -53 -8 0 -14 5 -14 10 0 6 -33
10 -79 10 -73 0 -79 2 -85 23 -9 33 -7 75 3 79 5 2 12 30 15 63 11 122 27 198
47 226 24 34 121 83 146 75 10 -3 24 -2 32 3 27 17 49 0 61 -47z m1737 36 c-3
-8 -6 -5 -6 6 -1 11 2 17 5 13 3 -3 4 -12 1 -19z m570 0 c-3 -8 -6 -5 -6 6 -1
11 2 17 5 13 3 -3 4 -12 1 -19z m1515 0 c-7 -7 -12 -8 -12 -2 0 14 12 26 19
19 2 -3 -1 -11 -7 -17z m-1817 2 c3 -5 1 -10 -4 -10 -6 0 -11 5 -11 10 0 6 2
10 4 10 3 0 8 -4 11 -10z m-107 -17 c16 -16 16 -16 -2 -10 -12 5 -26 1 -37 -9
-23 -21 -25 -7 -2 18 20 22 20 22 41 1z m1912 -11 c0 -13 -31 -52 -41 -52 -5
0 -3 14 6 30 14 28 35 41 35 22z m450 4 c0 -3 -4 -8 -10 -11 -5 -3 -10 -1 -10
4 0 6 5 11 10 11 6 0 10 -2 10 -4z m-1355 -16 c-27 -12 -35 -12 -35 0 0 6 12
10 28 9 24 0 25 -1 7 -9z m-3955 -30 c-7 -13 -9 -35 -6 -51 6 -32 -9 -38 -45
-19 -24 14 -25 37 0 45 11 3 27 17 36 31 20 31 32 25 15 -6z m2970 11 c0 -11
-28 -46 -37 -46 -4 -1 -18 -6 -30 -13 -20 -11 -23 -10 -23 3 0 25 56 76 74 69
9 -3 16 -9 16 -13z m2509 10 c15 -10 7 -31 -12 -31 -7 0 -13 9 -13 20 0 22 4
24 25 11z m-4299 -58 c0 -18 -4 -33 -9 -33 -9 0 -20 78 -12 86 9 9 21 -21 21
-53z m1597 -5 c-2 -13 -4 -3 -4 22 0 25 2 35 4 23 2 -13 2 -33 0 -45z m2013
52 c0 -5 -9 -14 -20 -20 -22 -12 -27 -1 -8 18 14 14 28 16 28 2z m-115 -21
c46 -27 62 -56 43 -75 -12 -12 -24 -12 -84 1 -38 9 -80 25 -94 36 -14 11 -18
18 -10 15 73 -24 92 -28 124 -22 44 8 46 20 6 38 -16 7 -30 16 -30 20 0 12 5
10 45 -13z m909 5 c4 -11 0 -15 -16 -12 -12 2 -23 9 -26 16 -6 18 35 15 42 -4z
m-544 -14 c10 -6 2 -8 -25 -4 l-40 6 34 -23 c20 -13 29 -25 22 -27 -7 -2 -18
1 -24 7 -15 15 -27 14 -27 -4 0 -8 9 -19 19 -24 18 -10 41 -60 41 -85 -1 -6
-12 3 -26 19 l-25 30 7 -30 c6 -29 6 -29 -10 -10 -17 19 -17 18 -12 -22 7 -50
-9 -67 -19 -21 l-7 32 -20 -27 c-20 -28 -54 -38 -45 -13 7 18 -11 36 -29 29
-8 -3 -14 -1 -14 5 0 5 -11 7 -25 5 -36 -7 -59 20 -48 55 8 22 16 28 49 30 30
3 47 12 74 42 31 35 40 39 85 39 28 0 57 -4 65 -9z m470 -19 c0 -4 -18 -18
-41 -30 -39 -22 -41 -22 -54 -5 -32 42 -5 67 56 51 22 -5 39 -13 39 -16z
m-4390 10 c0 -5 -7 -12 -16 -15 -14 -5 -15 -4 -4 9 14 17 20 19 20 6z m160
-21 c0 -5 -2 -10 -4 -10 -3 0 -8 5 -11 10 -3 6 -1 10 4 10 6 0 11 -4 11 -10z
m675 -7 c19 -15 19 -15 -7 -9 -22 5 -34 -2 -75 -42 -106 -101 -129 -112 -71
-31 38 54 75 87 103 92 11 2 22 5 25 5 3 1 14 -6 25 -15z m1885 5 c0 -7 -12
-25 -27 -41 -16 -15 -21 -26 -13 -23 8 4 42 2 75 -3 53 -7 55 -9 19 -10 -22 0
-49 -7 -59 -15 -17 -12 -15 -13 25 -12 26 0 45 -4 48 -12 2 -6 10 -12 18 -12
8 0 14 -4 14 -10 0 -5 7 -10 16 -10 12 0 9 -6 -10 -21 -26 -20 -28 -20 -46 -4
-19 18 -20 17 -22 -11 0 -16 0 -39 1 -52 2 -27 -22 -38 -52 -25 -14 7 -23 21
-25 38 -3 38 -10 43 -20 16 -17 -48 -40 -16 -41 60 -1 25 -6 50 -12 56 -18 18
-3 42 34 58 19 8 39 21 47 29 15 19 30 21 30 4z m1835 2 c-3 -5 -10 -10 -16
-10 -5 0 -9 5 -9 10 0 6 7 10 16 10 8 0 12 -4 9 -10z m-2695 -29 c0 -17 -54
-54 -59 -40 -2 6 7 20 20 30 27 21 39 24 39 10z m2377 3 c-3 -3 -12 -4 -19 -1
-8 3 -5 6 6 6 11 1 17 -2 13 -5z m-4237 -14 c0 -5 -12 -10 -27 -9 -25 0 -26 1
-8 9 27 12 35 12 35 0z m88 -42 c1 -38 -1 -49 -8 -38 -12 19 -13 90 -1 90 4 0
9 -24 9 -52z m1536 27 c-9 -14 -18 -25 -21 -25 -5 0 5 18 20 38 17 22 18 13 1
-13z m-1697 9 c-3 -3 -12 -4 -19 -1 -8 3 -5 6 6 6 11 1 17 -2 13 -5z m4520
-16 c-3 -8 -6 -5 -6 6 -1 11 2 17 5 13 3 -3 4 -12 1 -19z m-4123 -9 c46 -27
45 -39 -1 -39 -23 0 -60 -12 -92 -30 -59 -33 -74 -33 -42 -1 12 12 21 26 21
32 0 7 -12 0 -26 -15 -15 -14 -32 -26 -38 -26 -6 0 12 23 41 50 58 56 82 61
137 29z m486 -4 c0 -8 5 -15 10 -15 6 0 10 -7 10 -16 0 -8 4 -12 10 -9 6 3 7
-1 4 -9 -4 -11 -19 -16 -47 -16 -24 0 -48 -7 -59 -17 -18 -16 -19 -16 -13 16
9 51 85 110 85 66z m1095 5 c-4 -7 3 -9 22 -5 23 5 25 4 13 -5 -13 -10 -11
-11 7 -7 12 3 36 -5 55 -16 l33 -21 -33 -7 c-52 -11 -52 -22 1 -16 26 4 47 3
47 -1 0 -16 -86 -47 -122 -43 -26 2 -38 -1 -38 -10 0 -7 -3 -10 -6 -7 -3 4 -1
16 6 27 23 44 -31 13 -66 -37 -16 -23 -23 -29 -19 -15 16 57 30 139 19 116 -6
-15 -24 -18 -24 -5 0 14 73 62 93 62 10 0 15 -5 12 -10z m-2290 -10 c-3 -5
-10 -10 -16 -10 -5 0 -9 5 -9 10 0 6 7 10 16 10 8 0 12 -4 9 -10z m4822 -22
c-3 -8 -6 -5 -6 6 -1 11 2 17 5 13 3 -3 4 -12 1 -19z m-2866 -19 c-12 -13 -21
-19 -21 -14 0 11 32 46 38 41 2 -3 -5 -15 -17 -27z m2858 -20 c-22 -14 -26
-11 -24 14 3 31 3 30 22 12 14 -14 14 -18 2 -26z m-4810 5 c2 -2 2 -7 -2 -10
-9 -9 -57 5 -57 16 0 9 47 4 59 -6z m720 -1 c13 -10 33 -27 45 -38 l21 -20
-45 -6 c-54 -7 -110 -30 -129 -52 -15 -18 -36 -24 -26 -7 11 18 -16 41 -38 34
-18 -6 -19 -5 -7 7 19 18 89 70 115 86 28 16 37 16 64 -4z m-749 -33 c0 -5 -9
-10 -19 -10 -11 0 -21 -6 -24 -12 -2 -7 -8 -10 -12 -6 -10 10 17 37 38 38 9 0
17 -4 17 -10z m3900 -10 c0 -5 -4 -10 -10 -10 -5 0 -10 5 -10 10 0 6 5 10 10
10 6 0 10 -4 10 -10z m-3480 -9 c0 -5 3 -16 6 -25 4 -10 -5 -22 -27 -35 -30
-19 -35 -19 -51 -5 -16 15 -16 18 4 45 21 27 68 41 68 20z m809 -13 c8 -21 4
-58 -6 -58 -2 0 -14 5 -25 11 -18 10 -25 8 -41 -12 -16 -20 -17 -25 -4 -34 12
-9 11 -12 -9 -22 -14 -6 -26 -7 -30 -2 -3 5 1 9 8 10 7 1 2 4 -12 8 -16 5 -31
3 -41 -6 -29 -25 -141 8 -115 34 3 3 6 1 6 -5 0 -7 7 -12 15 -12 18 0 20 17 3
23 -19 6 57 36 112 43 29 4 56 14 66 25 24 26 63 25 73 -3z m591 2 c8 -5 11
-10 5 -10 -5 0 -17 5 -25 10 -8 5 -10 10 -5 10 6 0 17 -5 25 -10z m-2523 -22
c-3 -8 -6 -5 -6 6 -1 11 2 17 5 13 3 -3 4 -12 1 -19z m1669 6 c32 -14 35 -17
21 -26 -12 -6 -29 -6 -51 2 -18 6 -42 8 -52 4 -16 -5 -15 -2 5 15 28 25 28 25
77 5z m795 -4 c11 0 17 -4 14 -10 -10 -16 -52 -12 -59 6 -5 12 -2 15 10 10 8
-3 25 -6 35 -6z m599 7 c0 -2 -12 -14 -27 -28 -20 -18 -24 -19 -13 -4 18 24
40 42 40 32z m2236 -12 c-11 -8 -27 -15 -35 -15 -11 0 -10 4 5 15 10 8 26 14
34 14 11 0 10 -3 -4 -14z m-3246 -27 c0 -17 -30 -40 -45 -34 -9 3 -26 1 -40
-4 -25 -9 -25 -9 -9 15 8 13 23 26 32 28 32 7 62 5 62 -5z m3183 5 c-7 -2 -19
-2 -25 0 -7 3 -2 5 12 5 14 0 19 -2 13 -5z m-5369 -29 c9 -23 0 -30 -18 -15
-16 13 -56 6 -56 -9 0 -6 11 -12 26 -16 27 -7 30 -34 5 -42 -10 -3 -12 0 -8
11 4 10 -1 17 -14 20 -10 3 -19 1 -19 -4 0 -5 5 -9 10 -9 6 0 10 -5 10 -11 0
-6 -16 -9 -37 -7 -25 2 -37 8 -39 21 -2 18 11 23 21 7 12 -20 27 -10 21 14 -5
19 0 29 16 40 30 21 74 21 82 0z m2797 4 c0 -10 2 -10 6 0 6 14 153 17 153 3
0 -16 -53 -28 -120 -27 -67 2 -95 10 -85 27 9 14 45 11 46 -3z m-2636 -8 c5
-9 -42 -25 -60 -21 -14 3 -4 17 17 23 34 9 36 9 43 -2z m4370 0 c-3 -5 -10
-10 -16 -10 -5 0 -9 5 -9 10 0 6 7 10 16 10 8 0 12 -4 9 -10z m460 0 c4 -6
-15 -10 -49 -10 -31 0 -56 5 -56 10 0 6 22 10 49 10 28 0 53 -4 56 -10z
m-1291 -9 c3 -5 -1 -11 -9 -15 -15 -6 -29 7 -18 18 9 9 21 8 27 -3z m361 -1
c-3 -5 -18 -10 -33 -10 -21 0 -24 2 -12 10 20 13 53 13 45 0z m-3485 -10 c-20
-13 -33 -13 -25 0 3 6 14 10 23 10 15 0 15 -2 2 -10z m775 -10 c0 -8 3 -17 7
-20 4 -3 -13 -6 -37 -5 -33 0 -44 3 -40 13 3 8 5 18 5 23 0 6 15 9 33 7 20 -2
32 -8 32 -18z m1744 6 c10 -11 8 -16 -9 -21 -26 -8 -35 -1 -27 20 8 19 21 19
36 1z m2009 2 c-2 -6 -10 -14 -16 -16 -7 -2 -10 2 -6 12 7 18 28 22 22 4z
m257 2 c4 -6 -14 -9 -47 -9 l-53 2 40 7 c22 4 43 8 47 9 4 0 10 -3 13 -9z
m-3935 -10 c-8 -5 -19 -10 -25 -10 -5 0 -3 5 5 10 8 5 20 10 25 10 6 0 3 -5
-5 -10z m3585 -10 c3 -5 -1 -10 -10 -10 -9 0 -13 5 -10 10 3 6 8 10 10 10 2 0
7 -4 10 -10z m-4442 -15 c-3 -9 -8 -14 -10 -11 -3 3 -2 9 2 15 9 16 15 13 8
-4z m3194 0 c8 -9 13 -18 11 -21 -9 -9 -59 16 -53 26 9 14 24 12 42 -5z m178
5 c-3 -5 -11 -10 -16 -10 -6 0 -7 5 -4 10 3 6 11 10 16 10 6 0 7 -4 4 -10z
m945 -6 c0 -2 -9 -4 -20 -4 -11 0 -20 4 -20 9 0 5 9 7 20 4 11 -3 20 -7 20 -9z
m-3756 -10 c4 -9 5 -18 4 -19 -7 -6 -48 15 -48 25 0 17 37 11 44 -6z m4426 1
c-7 -9 -15 -13 -17 -11 -7 7 7 26 19 26 6 0 6 -6 -2 -15z m-1070 1 c0 -9 -30
-14 -35 -6 -4 6 3 10 14 10 12 0 21 -2 21 -4z m1276 -23 c-10 -10 -19 5 -10
18 6 11 8 11 12 0 2 -7 1 -15 -2 -18z m-5021 5 c-44 -13 -95 -19 -106 -12 -20
12 2 19 68 20 55 1 62 -1 38 -8z m3425 2 c0 -5 -7 -10 -15 -10 -8 0 -15 5 -15
10 0 6 7 10 15 10 8 0 15 -4 15 -10z m890 -5 c0 -16 -17 -19 -44 -9 -22 9 -10
24 20 24 15 0 24 -6 24 -15z m-4447 -12 c-7 -2 -21 -2 -30 0 -10 3 -4 5 12 5
17 0 24 -2 18 -5z m4357 -35 c0 -6 -7 -7 -16 -4 -9 3 -20 6 -25 6 -6 0 -8 4
-5 9 8 12 46 2 46 -11z m908 -8 c-13 -20 -58 -33 -71 -21 -4 4 0 14 9 22 14
11 18 12 22 1 3 -10 8 -7 19 7 18 26 37 18 21 -9z m-154 -6 c51 -9 33 -26 -22
-21 -26 3 -54 1 -62 -3 -9 -5 -31 -5 -50 -1 l-35 8 40 8 c22 4 47 11 55 16 8
5 20 7 27 4 6 -2 28 -7 47 -11z m-98 -64 c21 0 17 -37 -5 -43 -16 -4 -19 1
-18 31 1 19 3 30 5 23 2 -6 10 -11 18 -11z m-36 -20 c0 -5 -4 -10 -10 -10 -5
0 -10 5 -10 10 0 6 5 10 10 10 6 0 10 -4 10 -10z m144 -58 c-4 -4 -9 -1 -11 6
-11 29 -23 8 -23 -40 0 -29 -4 -58 -8 -65 -4 -6 -7 16 -6 49 0 52 4 64 22 76
12 8 23 22 24 31 0 9 3 1 5 -17 3 -19 1 -37 -3 -40z m-249 8 c-3 -5 -11 -10
-16 -10 -6 0 -7 5 -4 10 3 6 11 10 16 10 6 0 7 -4 4 -10z m165 0 c0 -5 -7 -10
-15 -10 -8 0 -15 -6 -15 -12 0 -9 -4 -8 -10 2 -15 23 -12 30 15 30 14 0 25 -4
25 -10z m-73 -32 c-3 -7 -5 -2 -5 12 0 14 2 19 5 13 2 -7 2 -19 0 -25z m449
-45 c21 -52 29 -93 16 -93 -5 0 -17 22 -25 48 -9 26 -19 56 -23 65 -13 35 16
16 32 -20z m-309 -25 c-3 -7 -5 -2 -5 12 0 14 2 19 5 13 2 -7 2 -19 0 -25z
m-67 -10 c0 -16 -3 -19 -11 -11 -6 6 -8 16 -5 22 11 17 16 13 16 -11z m312
-22 c-2 -5 -9 -1 -14 8 -5 9 -6 21 -2 28 9 14 25 -22 16 -36z m-250 -31 c-2
-14 -8 -25 -13 -25 -12 0 -11 7 1 31 14 26 18 24 12 -6z m-212 -15 c0 -5 -4
-10 -9 -10 -6 0 -13 5 -16 10 -3 6 1 10 9 10 9 0 16 -4 16 -10z m40 0 c0 -5
-4 -10 -10 -10 -5 0 -10 5 -10 10 0 6 5 10 10 10 6 0 10 -4 10 -10z m115 0 c3
-5 -5 -21 -18 -34 -18 -18 -21 -28 -14 -35 8 -8 8 -14 -1 -23 -7 -7 -12 -21
-12 -32 1 -20 1 -20 11 -2 9 15 13 16 20 5 5 -8 9 -24 9 -36 0 -20 -5 -23 -42
-22 -37 1 -39 2 -18 9 l25 8 -28 1 c-16 1 -26 5 -22 11 3 5 12 7 20 3 12 -4
15 6 15 55 0 55 -2 61 -22 65 -18 3 -17 5 7 6 l30 2 -25 14 c-25 14 -24 14 17
15 23 0 45 -4 48 -10z m180 0 c3 -5 1 -10 -4 -10 -6 0 -11 5 -11 10 0 6 2 10
4 10 3 0 8 -4 11 -10z m-97 -184 c-3 -5 -18 -6 -32 -2 -24 6 -26 11 -26 57 0
31 4 48 10 44 6 -4 10 5 10 20 0 14 7 28 15 31 8 4 16 14 17 23 1 9 4 -24 7
-74 3 -49 3 -94 -1 -99z m-5853 134 c-3 -5 -11 -10 -16 -10 -6 0 -7 5 -4 10 3
6 11 10 16 10 6 0 7 -4 4 -10z m-87 -71 c0 -27 -3 -37 -9 -28 -12 19 -11 69 0
69 6 0 9 -19 9 -41z m6192 10 c0 -12 -27 -11 -35 1 -11 17 5 32 21 19 8 -6 14
-15 14 -20z m35 -19 c3 -5 1 -10 -4 -10 -6 0 -11 5 -11 10 0 6 2 10 4 10 3 0
8 -4 11 -10z m-578 -16 c-3 -3 -12 -4 -19 -1 -8 3 -5 6 6 6 11 1 17 -2 13 -5z
m460 -20 c-3 -3 -12 -4 -19 -1 -8 3 -5 6 6 6 11 1 17 -2 13 -5z m136 -11 c-13
-2 -33 -2 -45 0 -13 2 -3 4 22 4 25 0 35 -2 23 -4z"/>
<path d="M1940 1935 c0 -10 7 -15 18 -13 21 4 19 22 -2 26 -10 2 -16 -3 -16
-13z"/>
<path d="M2985 1189 c-11 -16 -1 -19 13 -3 7 8 8 14 3 14 -5 0 -13 -5 -16 -11z"/>
<path d="M2890 1000 c-13 -9 -13 -10 0 -9 8 1 26 5 40 9 l25 8 -25 1 c-14 0
-32 -4 -40 -9z"/>
<path d="M3680 1510 c0 -5 5 -10 10 -10 6 0 10 5 10 10 0 6 -4 10 -10 10 -5 0
-10 -4 -10 -10z"/>
<path d="M3651 1244 c0 -11 3 -14 6 -6 3 7 2 16 -1 19 -3 4 -6 -2 -5 -13z"/>
<path d="M4093 1713 c-14 -5 -18 -43 -5 -43 10 0 42 33 42 43 0 8 -19 8 -37 0z"/>
<path d="M1977 1208 c8 -72 13 -73 13 -5 0 32 -4 57 -10 57 -5 0 -7 -22 -3
-52z"/>
<path d="M527 1358 c8 -46 13 -48 13 -5 0 21 -4 37 -10 37 -5 0 -7 -14 -3 -32z"/>
<path d="M530 1296 c0 -8 5 -18 10 -21 6 -3 10 3 10 14 0 12 -4 21 -10 21 -5
0 -10 -6 -10 -14z"/>
<path d="M720 1100 c0 -5 5 -10 10 -10 6 0 10 5 10 10 0 6 -4 10 -10 10 -5 0
-10 -4 -10 -10z"/>
<path d="M928 1023 c6 -2 18 -2 25 0 6 3 1 5 -13 5 -14 0 -19 -2 -12 -5z"/>
<path d="M938 993 c6 -2 18 -2 25 0 6 3 1 5 -13 5 -14 0 -19 -2 -12 -5z"/>
<path d="M985 1150 c3 -5 11 -10 16 -10 6 0 7 5 4 10 -3 6 -11 10 -16 10 -6 0
-7 -4 -4 -10z"/>
<path d="M2170 1130 c0 -5 5 -10 10 -10 6 0 10 5 10 10 0 6 -4 10 -10 10 -5 0
-10 -4 -10 -10z"/>
<path d="M1380 1176 c0 -7 6 -19 14 -25 11 -9 12 -6 8 14 -5 26 -22 35 -22 11z"/>
<path d="M1206 894 c-24 -24 -19 -30 7 -8 12 10 24 20 26 21 2 2 -1 3 -7 3 -6
0 -18 -7 -26 -16z"/>
<path d="M4132 970 c0 -14 2 -19 5 -12 2 6 2 18 0 25 -3 6 -5 1 -5 -13z"/>
<path d="M1450 940 c0 -5 5 -10 11 -10 5 0 7 5 4 10 -3 6 -8 10 -11 10 -2 0
-4 -4 -4 -10z"/>
<path d="M5780 3090 c0 -11 5 -20 10 -20 6 0 10 -7 10 -15 0 -21 13 -19 28 6
11 18 11 23 -5 35 -26 19 -43 17 -43 -6z"/>
<path d="M5804 2999 c-8 -14 11 -33 25 -25 6 4 11 14 11 22 0 16 -26 19 -36 3z"/>
<path d="M5725 2960 c-8 -13 4 -32 16 -25 12 8 12 35 0 35 -6 0 -13 -4 -16
-10z"/>
<path d="M5780 2920 c0 -5 5 -10 10 -10 6 0 10 5 10 10 0 6 -4 10 -10 10 -5 0
-10 -4 -10 -10z"/>
<path d="M5860 2890 c0 -5 5 -10 10 -10 6 0 10 5 10 10 0 6 -4 10 -10 10 -5 0
-10 -4 -10 -10z"/>
<path d="M5861 1994 c0 -11 3 -14 6 -6 3 7 2 16 -1 19 -3 4 -6 -2 -5 -13z"/>
<path d="M3480 900 c0 -5 5 -10 10 -10 6 0 10 5 10 10 0 6 -4 10 -10 10 -5 0
-10 -4 -10 -10z"/>
<path d="M2850 820 c0 -5 -7 -10 -15 -10 -8 0 -15 -4 -15 -9 0 -5 9 -7 20 -4
17 5 30 33 15 33 -3 0 -5 -4 -5 -10z"/>
<path d="M2898 813 c7 -3 16 -2 19 1 4 3 -2 6 -13 5 -11 0 -14 -3 -6 -6z"/>
<path d="M405 801 c6 -10 51 -8 62 2 3 4 -10 7 -31 7 -20 0 -35 -4 -31 -9z"/>
<path d="M2955 801 c-16 -4 -41 -13 -55 -21 l-24 -13 23 -9 c12 -4 34 -6 47
-4 13 3 27 0 30 -6 5 -7 -13 -9 -55 -6 -60 4 -78 -3 -43 -17 29 -12 274 -15
327 -3 28 5 57 16 66 24 8 8 21 14 27 14 7 0 12 5 12 11 0 6 -9 8 -21 4 -21
-7 -28 -8 -177 -25 -70 -8 -98 -8 -108 1 -21 17 -17 27 13 31 14 2 28 9 31 16
4 13 -42 15 -93 3z"/>
<path d="M1890 790 c8 -5 20 -10 25 -10 6 0 3 5 -5 10 -8 5 -19 10 -25 10 -5
0 -3 -5 5 -10z"/>
<path d="M2520 785 c-10 -12 -10 -15 4 -15 9 0 16 7 16 15 0 8 -2 15 -4 15 -2
0 -9 -7 -16 -15z"/>
<path d="M0 753 c0 -22 2 -25 10 -13 13 20 13 40 0 40 -5 0 -10 -12 -10 -27z"/>
<path d="M445 770 c4 -6 11 -8 16 -5 14 9 11 15 -7 15 -8 0 -12 -5 -9 -10z"/>
<path d="M550 770 c-12 -7 -8 -10 15 -10 48 0 63 -15 29 -28 -28 -11 -28 -11
10 -9 51 3 57 23 12 42 -41 18 -46 18 -66 5z"/>
<path d="M2290 770 c0 -5 5 -10 10 -10 6 0 10 5 10 10 0 6 -4 10 -10 10 -5 0
-10 -4 -10 -10z"/>
<path d="M3490 765 c0 -8 7 -15 15 -15 8 0 15 7 15 15 0 8 -7 15 -15 15 -8 0
-15 -7 -15 -15z"/>
<path d="M2010 760 c0 -13 28 -25 38 -16 3 4 0 11 -8 16 -20 13 -30 12 -30 0z"/>
<path d="M2321 751 c-29 -25 -26 -33 11 -29 21 2 34 9 36 19 5 25 -24 30 -47
10z"/>
<path d="M56 749 c4 -8 0 -9 -15 -4 -24 7 -29 -10 -5 -19 26 -10 34 -7 34 14
0 11 -5 20 -11 20 -5 0 -7 -5 -3 -11z"/>
<path d="M1088 754 c6 -3 12 -12 12 -20 0 -8 10 -14 25 -14 14 0 25 4 25 9 0
13 -8 17 -45 24 -16 4 -24 4 -17 1z"/>
<path d="M1600 750 c0 -13 18 -22 24 -11 3 5 -1 11 -9 15 -8 3 -15 1 -15 -4z"/>
<path d="M2594 741 c17 -18 17 -19 -1 -24 -10 -3 5 -5 34 -6 86 -2 85 35 -1
44 -47 5 -48 4 -32 -14z"/>
<path d="M3680 743 c0 -9 29 -33 39 -33 17 0 1 28 -20 33 -10 3 -19 3 -19 0z"/>
<path d="M3890 735 c0 -8 6 -15 14 -15 22 0 28 17 10 24 -22 9 -24 8 -24 -9z"/>
<path d="M2076 725 c4 -8 8 -15 10 -15 2 0 4 7 4 15 0 8 -4 15 -10 15 -5 0 -7
-7 -4 -15z"/>
<path d="M2560 729 c0 -5 5 -7 10 -4 6 3 10 8 10 11 0 2 -4 4 -10 4 -5 0 -10
-5 -10 -11z"/>
<path d="M3326 731 c-3 -5 1 -12 10 -15 20 -8 29 -1 19 13 -8 13 -22 14 -29 2z"/>
<path d="M4050 730 c0 -5 7 -7 15 -4 8 4 15 8 15 10 0 2 -7 4 -15 4 -8 0 -15
-4 -15 -10z"/>
<path d="M710 720 c0 -5 4 -10 9 -10 6 0 13 5 16 10 3 6 -1 10 -9 10 -9 0 -16
-4 -16 -10z"/>
<path d="M1998 713 c6 -2 18 -2 25 0 6 3 1 5 -13 5 -14 0 -19 -2 -12 -5z"/>
<path d="M5371 645 c1 -40 5 -55 15 -55 10 0 14 15 14 55 0 42 -4 55 -15 55
-11 0 -14 -13 -14 -55z"/>
<path d="M5464 686 c-3 -7 -4 -17 -2 -22 1 -5 -3 -19 -10 -30 -13 -25 -7 -34
24 -34 24 0 32 18 26 62 -4 29 -30 46 -38 24z"/>
<path d="M39 683 c0 -5 -1 -28 -2 -53 -1 -40 1 -45 18 -42 25 5 85 41 85 52 0
30 -77 8 -84 -23 -3 -12 -3 -1 -2 26 2 26 0 47 -5 47 -5 0 -9 -3 -10 -7z"/>
<path d="M66 675 c-3 -8 -1 -15 4 -15 6 0 10 7 10 15 0 8 -2 15 -4 15 -2 0 -6
-7 -10 -15z"/>
<path d="M4676 681 c-4 -5 -2 -12 4 -16 5 -3 10 -17 10 -31 l0 -25 22 21 c12
11 20 21 17 23 -2 1 -14 10 -26 20 -12 11 -23 14 -27 8z"/>
<path d="M4994 681 c7 -11 -38 -31 -69 -31 -13 0 -31 -7 -39 -16 -15 -14 -16
-14 -16 0 0 9 -4 16 -10 16 -15 0 -12 -16 5 -30 16 -13 114 -20 121 -8 3 5 15
8 26 8 22 0 47 26 48 48 0 9 -7 11 -20 7 -11 -4 -20 -2 -20 4 0 6 -7 11 -16
11 -8 0 -13 -4 -10 -9z m31 -31 c3 -5 -3 -10 -14 -10 -12 0 -21 5 -21 10 0 6
6 10 14 10 8 0 18 -4 21 -10z"/>
<path d="M5580 674 c0 -8 5 -12 10 -9 6 3 10 10 10 16 0 5 -4 9 -10 9 -5 0
-10 -7 -10 -16z"/>
<path d="M5650 665 c0 -14 4 -25 9 -25 5 0 8 11 7 25 -1 33 -16 33 -16 0z"/>
<path d="M7 638 c6 -59 13 -61 13 -5 0 26 -4 47 -8 47 -5 0 -7 -19 -5 -42z"/>
<path d="M5218 673 c7 -3 16 -2 19 1 4 3 -2 6 -13 5 -11 0 -14 -3 -6 -6z"/>
<path d="M5168 663 c-29 -7 -21 -28 15 -41 39 -14 63 -15 28 -1 -17 7 -22 15
-18 29 3 11 2 19 -1 19 -4 -1 -15 -3 -24 -6z"/>
<path d="M5308 653 c7 -3 16 -2 19 1 4 3 -2 6 -13 5 -11 0 -14 -3 -6 -6z"/>
<path d="M5578 620 c-3 -20 0 -30 9 -30 7 0 13 11 13 24 0 36 -17 41 -22 6z"/>
<path d="M5650 604 c0 -8 5 -12 10 -9 6 3 10 10 10 16 0 5 -4 9 -10 9 -5 0
-10 -7 -10 -16z"/>
<path d="M125 600 c-19 -8 -19 -9 2 -9 12 -1 25 4 28 9 7 12 -2 12 -30 0z"/>
<path d="M103 572 c-7 -4 -16 -19 -22 -32 l-10 -25 -2 25 c-1 24 -2 23 -9 -5
-6 -24 -8 -26 -9 -7 -2 39 -21 23 -21 -18 0 -22 5 -40 10 -40 6 0 10 7 10 15
0 11 5 12 26 5 35 -14 36 -13 22 10 -9 15 -10 23 -2 28 8 5 27 52 21 52 -1 0
-7 -4 -14 -8z"/>
<path d="M345 571 c-3 -5 -1 -12 5 -16 5 -3 10 1 10 9 0 18 -6 21 -15 7z"/>
<path d="M5377 567 c-11 -28 -9 -157 3 -157 6 0 11 15 11 33 1 17 2 41 3 52 1
11 -1 36 -4 55 -4 27 -7 31 -13 17z"/>
<path d="M5467 572 c-9 -2 -15 -8 -11 -13 3 -5 10 -7 15 -4 5 4 9 1 9 -5 0 -6
-7 -13 -16 -17 -13 -5 -13 -7 -2 -14 10 -7 10 -9 -2 -9 -11 0 -15 -11 -14 -47
1 -40 5 -49 21 -51 17 -3 21 4 26 40 6 46 4 115 -4 121 -2 2 -12 2 -22 -1z"/>
<path d="M5579 574 c-1 -5 -3 -42 -4 -81 -2 -54 1 -73 10 -73 10 0 13 19 11
74 -1 41 -5 78 -9 82 -4 4 -8 3 -8 -2z"/>
<path d="M9 558 c-6 -13 -4 -126 2 -123 8 5 12 125 4 125 -3 0 -5 -1 -6 -2z"/>
<path d="M5120 541 c0 -5 6 -12 13 -14 9 -4 9 -8 1 -14 -7 -4 -13 -28 -15 -53
-3 -34 -1 -45 11 -46 10 -1 11 0 2 3 -9 3 -1 16 23 38 34 30 41 32 72 23 38
-10 77 -2 67 14 -4 6 -24 8 -48 5 -38 -5 -45 -3 -66 23 -23 28 -60 41 -60 21z"/>
<path d="M4905 520 c6 -9 -27 -15 -67 -11 -21 3 -22 -7 -4 -31 17 -24 33 -23
41 2 4 12 15 20 28 19 21 0 21 -1 -3 -11 l-25 -11 25 -7 c14 -5 45 -8 70 -9
l45 0 -27 15 c-16 8 -28 19 -28 24 0 6 -9 10 -21 10 -11 0 -17 5 -14 10 3 6
-1 10 -10 10 -9 0 -13 -4 -10 -10z"/>
<path d="M114 508 c10 -6 22 -6 26 -2 5 5 -3 10 -18 11 -22 1 -24 0 -8 -9z"/>
<path d="M351 494 c0 -11 3 -14 6 -6 3 7 2 16 -1 19 -3 4 -6 -2 -5 -13z"/>
<path d="M4988 503 c6 -2 18 -2 25 0 6 3 1 5 -13 5 -14 0 -19 -2 -12 -5z"/>
<path d="M5051 494 c0 -11 3 -14 6 -6 3 7 2 16 -1 19 -3 4 -6 -2 -5 -13z"/>
<path d="M4790 470 c-9 -6 -10 -10 -3 -10 6 0 15 5 18 10 8 12 4 12 -15 0z"/>
<path d="M5082 460 c0 -14 2 -19 5 -12 2 6 2 18 0 25 -3 6 -5 1 -5 -13z"/>
<path d="M55 461 c-3 -5 -1 -12 5 -16 5 -3 10 1 10 9 0 18 -6 21 -15 7z"/>
<path d="M75 443 c-5 -23 -25 -32 -25 -12 0 5 -4 7 -10 4 -18 -11 -11 -35 10
-32 11 2 22 6 26 9 3 4 17 3 31 -3 31 -11 33 -11 33 1 0 6 -7 10 -15 10 -20 0
-19 16 1 24 22 8 11 19 -21 21 -17 0 -26 -6 -30 -22z"/>
<path d="M4960 441 c0 -5 -8 -11 -17 -13 -15 -3 -15 -5 -3 -10 18 -7 45 18 30
27 -6 3 -10 2 -10 -4z"/>
<path d="M5036 442 c-3 -6 -1 -14 5 -17 14 -9 20 -2 10 14 -6 8 -11 9 -15 3z"/>
<path d="M348 423 c6 -2 18 -2 25 0 6 3 1 5 -13 5 -14 0 -19 -2 -12 -5z"/>
<path d="M5370 390 c0 -5 5 -10 10 -10 6 0 10 5 10 10 0 6 -4 10 -10 10 -5 0
-10 -4 -10 -10z"/>
<path d="M5168 383 c6 -2 18 -2 25 0 6 3 1 5 -13 5 -14 0 -19 -2 -12 -5z"/>
<path d="M4915 370 c3 -5 11 -10 16 -10 6 0 7 5 4 10 -3 6 -11 10 -16 10 -6 0
-7 -4 -4 -10z"/>
<path d="M5040 368 c0 -13 -20 -17 -109 -23 -60 -4 -123 -4 -140 0 -19 4 -31
3 -31 -4 0 -12 48 -27 57 -17 4 3 13 0 22 -8 9 -9 46 -17 90 -20 66 -4 74 -3
78 15 3 10 11 19 18 19 15 0 31 38 21 47 -3 4 -6 -1 -6 -9z m-80 -48 c0 -5 -4
-10 -10 -10 -5 0 -10 5 -10 10 0 6 5 10 10 10 6 0 10 -4 10 -10z"/>
<path d="M5115 358 c16 -54 23 -103 14 -106 -19 -7 -8 -19 14 -15 22 4 23 8
17 56 -4 28 -12 53 -19 55 -6 2 -9 7 -6 12 3 4 -2 11 -11 14 -13 5 -15 2 -9
-16z"/>
<path d="M4598 363 c7 -3 16 -2 19 1 4 3 -2 6 -13 5 -11 0 -14 -3 -6 -6z"/>
<path d="M5368 363 c7 -3 16 -2 19 1 4 3 -2 6 -13 5 -11 0 -14 -3 -6 -6z"/>
<path d="M440 330 c0 -5 5 -10 10 -10 6 0 10 5 10 10 0 6 -4 10 -10 10 -5 0
-10 -4 -10 -10z"/>
<path d="M4738 273 c12 -2 32 -2 45 0 12 2 2 4 -23 4 -25 0 -35 -2 -22 -4z"/>
<path d="M4716 241 c-4 -5 3 -7 14 -4 23 6 26 13 6 13 -8 0 -17 -4 -20 -9z"/>
<path d="M5578 233 c7 -3 16 -2 19 1 4 3 -2 6 -13 5 -11 0 -14 -3 -6 -6z"/>
</g>
</svg>
